<svg xmlns="http://www.w3.org/2000/svg" width="27.366" height="27.366" viewBox="0 0 27.366 27.366">
  <path id="apple_check" d="M1527.491,127.858a13.687,13.687,0,0,0-25.216,10.65,13.334,13.334,0,0,0,1.117,2.1l-2.033,6.1,6.1-2.033a14.074,14.074,0,0,0,2.1,1.117,13.69,13.69,0,0,0,17.933-17.933Zm-11.325-2.608v.142c-.05,4.142-.092,6.9-.125,8.208l-.075,2.667h-2.183l-.008-.267c-.008-.292-.033-1.092-.067-2.4s-.075-4.067-.125-8.208v-.142Zm-1.283,15.733a1.533,1.533,0,1,1,1.533-1.533A1.529,1.529,0,0,1,1514.883,140.983Z" transform="translate(-1501.2 -119.5)" fill="#2bbfff"/>
</svg>
