<svg xmlns="http://www.w3.org/2000/svg" width="214.426" height="49.138" viewBox="0 0 214.426 49.138">
  <g id="ft_logo" transform="translate(-117.418 -182.367)" opacity="0.5">
    <g id="그룹_3" data-name="그룹 3" transform="translate(212.96 182.739)">
      <g id="그룹_1" data-name="그룹 1" transform="translate(0 26.707)">
        <path id="패스_1" data-name="패스 1" d="M399.773,255.592a9.433,9.433,0,0,1-2.735-.4,10.208,10.208,0,0,1-2.385-1.071.329.329,0,0,0-.079-.07,9.386,9.386,0,0,1-1.475-1.136l-.079-.076a.758.758,0,0,1,.011-1.1l1.67-1.541a.774.774,0,0,1,1.012-.034,9.089,9.089,0,0,0,1.192.808,8.9,8.9,0,0,0,1.4.649,4.313,4.313,0,0,0,1.469.278,5.133,5.133,0,0,0,1.171-.138,3.763,3.763,0,0,0,1.1-.444,2.624,2.624,0,0,0,.854-.835,2.4,2.4,0,0,0,.347-1.319,1.5,1.5,0,0,0-.225-.745,2.883,2.883,0,0,0-.694-.757,7.458,7.458,0,0,0-1.261-.792A20,20,0,0,0,399.11,246a24.369,24.369,0,0,1-2.456-1.086,8.331,8.331,0,0,1-1.911-1.329,5.391,5.391,0,0,1-1.226-1.7,5.331,5.331,0,0,1-.43-2.21,6.139,6.139,0,0,1,.481-2.425,5.718,5.718,0,0,1,1.365-1.95,6.4,6.4,0,0,1,2.144-1.3,8,8,0,0,1,4.546-.258,14.224,14.224,0,0,1,1.852.56,15.264,15.264,0,0,1,1.695.793,1,1,0,0,1,.508.692,1.067,1.067,0,0,1-.211.881l-.864,1.085a1.313,1.313,0,0,1-1.033.494,1.382,1.382,0,0,1-.665-.173,10.521,10.521,0,0,0-1.311-.574,4.574,4.574,0,0,0-1.564-.278,3.965,3.965,0,0,0-2.305.594,2.1,2.1,0,0,0-.909,1.822,1.706,1.706,0,0,0,.345,1.035,3.176,3.176,0,0,0,.83.761,7.024,7.024,0,0,0,1.129.591c.409.173.848.338,1.3.49a23.118,23.118,0,0,1,3.158,1.454,8.765,8.765,0,0,1,2.022,1.53,4.7,4.7,0,0,1,1.053,1.686,6.162,6.162,0,0,1,.315,2,5.91,5.91,0,0,1-.541,2.5,6.253,6.253,0,0,1-1.492,2.035,7.144,7.144,0,0,1-2.278,1.366A8.114,8.114,0,0,1,399.773,255.592Z" transform="translate(-342.594 -233.533)" fill="#687481"/>
        <path id="패스_2" data-name="패스 2" d="M430.733,255.567a1.4,1.4,0,0,1-1.4-1.4v-15.28a1.238,1.238,0,0,0-1.237-1.237h-3.559a1.4,1.4,0,0,1-1.4-1.4v-.9a1.4,1.4,0,0,1,1.4-1.4h13.225a1.4,1.4,0,0,1,1.4,1.4v.9a1.4,1.4,0,0,1-1.4,1.4h-3.5a1.238,1.238,0,0,0-1.237,1.237v15.28a1.4,1.4,0,0,1-1.4,1.4Z" transform="translate(-356.882 -233.732)" fill="#687481"/>
        <path id="패스_3" data-name="패스 3" d="M460.4,255.567a1.373,1.373,0,0,1-1.373-1.373V235.367a1.412,1.412,0,0,1,1.412-1.412H471.26a1.4,1.4,0,0,1,1.4,1.4v.9a1.4,1.4,0,0,1-1.4,1.4h-7.134a1.4,1.4,0,0,0-1.4,1.4v3.029a.818.818,0,0,0,.818.818h5.032a1.4,1.4,0,0,1,1.4,1.4v.93a1.4,1.4,0,0,1-1.4,1.4h-5.033a.817.817,0,0,0-.817.817v3.03a1.4,1.4,0,0,0,1.4,1.4h7.134a1.4,1.4,0,0,1,1.4,1.4v.9a1.4,1.4,0,0,1-1.4,1.4Z" transform="translate(-373.779 -233.732)" fill="#687481"/>
        <path id="패스_4" data-name="패스 4" d="M503.808,255.567a.818.818,0,0,1-.666-.343l-5.454-7.664a1.24,1.24,0,0,0-1.008-.52h-1.209a1.4,1.4,0,0,0-1.4,1.4v6.31a.82.82,0,0,1-.817.818h-2.029a.82.82,0,0,1-.818-.818V234.773a.82.82,0,0,1,.818-.818h7.849a6.225,6.225,0,0,1,2.5.512,6.717,6.717,0,0,1,2.073,1.407,6.935,6.935,0,0,1,1.425,2.077,6.137,6.137,0,0,1,.526,2.53,6.474,6.474,0,0,1-1.026,3.582,6.326,6.326,0,0,1-1.905,1.917,1.256,1.256,0,0,0-.569.824,1.221,1.221,0,0,0,.212.949l5.03,7.032a.494.494,0,0,1-.4.781Zm-8.337-17.917a1.4,1.4,0,0,0-1.4,1.4v2.927a1.4,1.4,0,0,0,1.4,1.4h2.773a3.9,3.9,0,0,0,2.746-.852,2.723,2.723,0,0,0,.916-2.043,2.625,2.625,0,0,0-.922-2.017,4.006,4.006,0,0,0-2.739-.814Z" transform="translate(-388.551 -233.732)" fill="#687481"/>
        <path id="패스_5" data-name="패스 5" d="M309.242,241.481l-6.79-6.753a2.643,2.643,0,0,0-4.506,1.874v17.6a1.36,1.36,0,0,0,1.36,1.36h.976a1.36,1.36,0,0,0,1.36-1.36V241.755a1.123,1.123,0,0,1,.672-1.028h0a1.123,1.123,0,0,1,1.242.233l4.906,4.881a2.23,2.23,0,0,0,3.143,0l4.932-4.89a1.121,1.121,0,0,1,1.239-.231h0a1.122,1.122,0,0,1,.673,1.028v12.416a1.4,1.4,0,0,0,1.4,1.4h.866a1.4,1.4,0,0,0,1.4-1.4V236.6a2.643,2.643,0,0,0-4.506-1.874l-6.794,6.756A1.115,1.115,0,0,1,309.242,241.481Z" transform="translate(-297.946 -233.73)" fill="#687481"/>
        <path id="패스_6" data-name="패스 6" d="M370.212,253.989,361.9,235.341a2.366,2.366,0,0,0-4.326.011l-8.191,18.642a1.115,1.115,0,0,0,1.021,1.563h1.4a1.4,1.4,0,0,0,1.279-.83c.589-1.332,1.695-3.833,1.85-4.189a1.233,1.233,0,0,1,1.133-.739h7.4a1.238,1.238,0,0,1,1.131.734l1.871,4.2a1.4,1.4,0,0,0,1.278.829h1.445A1.115,1.115,0,0,0,370.212,253.989Zm-8.151-8.251a.8.8,0,0,1-.674.366H358.12a.8.8,0,0,1-.736-1.131l1.314-2.956a1.17,1.17,0,0,1,.671-.643,1.142,1.142,0,0,1,1.425.611l1.328,2.988A.8.8,0,0,1,362.061,245.737Z" transform="translate(-322.118 -233.724)" fill="#687481"/>
      </g>
      <g id="그룹_2" data-name="그룹 2" transform="translate(0 0)">
        <path id="패스_7" data-name="패스 7" d="M306.793,200.764a8.847,8.847,0,1,1,8.847-8.847A8.857,8.857,0,0,1,306.793,200.764Zm0-14.006a5.158,5.158,0,1,0,5.158,5.158A5.164,5.164,0,0,0,306.793,186.758Z" transform="translate(-297.946 -183.07)" fill="#687481"/>
        <path id="패스_8" data-name="패스 8" d="M379.451,200.764a8.874,8.874,0,0,1-7.207-3.721,8.964,8.964,0,0,1-1.109-8.226,8.457,8.457,0,0,1,5.076-5.167,9.544,9.544,0,0,1,3.239-.58,8.687,8.687,0,0,1,6.1,2.412,1.328,1.328,0,0,1,.416,1.008,1.369,1.369,0,0,1-.477,1l-.74.635a1.343,1.343,0,0,1-.874.323,1.406,1.406,0,0,1-.947-.37,5.081,5.081,0,0,0-3.483-1.321,5.248,5.248,0,0,0-.6.035,5.175,5.175,0,0,0-4.522,4.532,5.114,5.114,0,0,0,1.28,4.027,5.167,5.167,0,0,0,3.845,1.723,5.075,5.075,0,0,0,3.484-1.315,1.415,1.415,0,0,1,.951-.372,1.345,1.345,0,0,1,.874.323l.7.6a1.367,1.367,0,0,1,.476,1.012,1.33,1.33,0,0,1-.433,1.015A8.863,8.863,0,0,1,379.451,200.764Z" transform="translate(-332.152 -183.07)" fill="#687481"/>
        <path id="패스_9" data-name="패스 9" d="M412.694,200.764a8.847,8.847,0,1,1,8.847-8.847A8.857,8.857,0,0,1,412.694,200.764Zm0-14.006a5.158,5.158,0,1,0,5.158,5.158A5.164,5.164,0,0,0,412.694,186.758Z" transform="translate(-347.801 -183.07)" fill="#687481"/>
        <path id="패스_10" data-name="패스 10" d="M349.5,185.458a8.121,8.121,0,0,1,2.389,5.758V198.9a1.4,1.4,0,0,1-1.4,1.4h-.89a1.4,1.4,0,0,1-1.4-1.4v-7.572a4.556,4.556,0,0,0-4.286-4.566c-.119,0-.231,0-.343,0a4.521,4.521,0,0,0-4.287,4.545V198.9a1.4,1.4,0,0,1-1.4,1.4H337a1.4,1.4,0,0,1-1.4-1.4v-7.532a8.273,8.273,0,0,1,7.951-8.3l.2,0a8.121,8.121,0,0,1,5.758,2.388" transform="translate(-315.67 -183.07)" fill="#687481"/>
      </g>
    </g>
    <g id="그룹_4" data-name="그룹 4" transform="translate(117.419 182.367)">
      <path id="패스_11" data-name="패스 11" d="M217.965,185.348a10.178,10.178,0,0,0-14.392,0,10.175,10.175,0,0,1-14.391,0,10.177,10.177,0,1,0-14.393,14.393h0a10.177,10.177,0,0,1,0,14.392,10.177,10.177,0,1,0,14.392,0,10.177,10.177,0,0,1,0-14.391h0a10.175,10.175,0,0,1,14.391,0,10.177,10.177,0,0,0,14.392-14.393Z" transform="translate(-143.023 -182.367)" fill="#687481"/>
      <path id="패스_12" data-name="패스 12" d="M120.4,214.132a10.177,10.177,0,1,0,14.392,0,10.177,10.177,0,0,1,0-14.392,10.177,10.177,0,1,0-14.392,0A10.177,10.177,0,0,1,120.4,214.132Z" transform="translate(-117.419 -182.367)" fill="#687481"/>
      <circle id="타원_1" data-name="타원 1" cx="10.177" cy="10.177" r="10.177" transform="translate(57.569 28.784)" fill="#687481"/>
    </g>
  </g>
</svg>
