<svg xmlns="http://www.w3.org/2000/svg" width="11.056" height="10.331" viewBox="0 0 11.056 10.331">
  <path id="ico_bread_home" d="M994.134,383v4.018a1.284,1.284,0,0,1-1.285,1.285h-1.441a1.263,1.263,0,0,1-1.263-1.263v-1.858a.758.758,0,0,0-.758-.758H987.82a.758.758,0,0,0-.758.758v1.858A1.263,1.263,0,0,1,985.8,388.3h-1.437a1.284,1.284,0,0,1-1.284-1.285V383a1.414,1.414,0,0,1,.48-1.066l4.106-3.609a1.424,1.424,0,0,1,1.879,0l4.106,3.609A1.418,1.418,0,0,1,994.134,383Z" transform="translate(-983.078 -377.972)" fill="#878686"/>
</svg>
