<svg xmlns="http://www.w3.org/2000/svg" width="1940.313" height="211.186" viewBox="0 0 1940.313 211.186">
  <g id="ico_bglogo" transform="translate(53.054 -294.943)" opacity="0.08">
    <g id="그룹_1" data-name="그룹 1" transform="translate(749.125 294.943)">
      <path id="패스_1" data-name="패스 1" d="M459.671,444.719a90.31,90.31,0,0,1-26.179-3.825,97.735,97.735,0,0,1-22.835-10.25,3.131,3.131,0,0,0-.76-.669A89.854,89.854,0,0,1,395.777,419.1l-.755-.725a7.254,7.254,0,0,1,.106-10.574l15.985-14.754a7.413,7.413,0,0,1,9.692-.324,86.977,86.977,0,0,0,11.415,7.732,85.165,85.165,0,0,0,13.391,6.217,41.28,41.28,0,0,0,14.06,2.66,49.146,49.146,0,0,0,11.212-1.317,36.024,36.024,0,0,0,10.508-4.246,25.135,25.135,0,0,0,8.177-7.99,22.979,22.979,0,0,0,3.319-12.631,14.375,14.375,0,0,0-2.158-7.129,27.61,27.61,0,0,0-6.642-7.245,71.387,71.387,0,0,0-12.074-7.58,191.5,191.5,0,0,0-18.691-8.264,233.318,233.318,0,0,1-23.514-10.4,79.774,79.774,0,0,1-18.3-12.722A51.6,51.6,0,0,1,399.779,313.5a51.028,51.028,0,0,1-4.114-21.158,58.775,58.775,0,0,1,4.6-23.215,54.735,54.735,0,0,1,13.067-18.665,61.264,61.264,0,0,1,20.525-12.413,76.564,76.564,0,0,1,43.517-2.467,136.214,136.214,0,0,1,17.728,5.366,146.143,146.143,0,0,1,16.223,7.595,9.54,9.54,0,0,1,4.864,6.627,10.221,10.221,0,0,1-2.022,8.436L505.9,273.99a12.568,12.568,0,0,1-9.885,4.732,13.228,13.228,0,0,1-6.369-1.652,100.666,100.666,0,0,0-12.55-5.5,43.78,43.78,0,0,0-14.977-2.66c-9.272,0-16.7,1.915-22.07,5.69-5.771,4.053-8.7,9.92-8.7,17.439a16.334,16.334,0,0,0,3.3,9.91,30.412,30.412,0,0,0,7.944,7.281,67.241,67.241,0,0,0,10.812,5.654c3.916,1.657,8.117,3.233,12.484,4.687A221.33,221.33,0,0,1,496.12,333.5a83.922,83.922,0,0,1,19.359,14.647,44.944,44.944,0,0,1,10.083,16.142,58.981,58.981,0,0,1,3.015,19.167,56.582,56.582,0,0,1-5.178,23.889,59.874,59.874,0,0,1-14.288,19.486A68.4,68.4,0,0,1,487.3,439.905,77.68,77.68,0,0,1,459.671,444.719Z" transform="translate(87.733 -233.533)" fill="#1991c5"/>
      <path id="패스_2" data-name="패스 2" d="M495.849,440.859a13.4,13.4,0,0,1-13.4-13.4V281.181a11.847,11.847,0,0,0-11.846-11.846H436.534a13.391,13.391,0,0,1-13.4-13.4v-8.588a13.394,13.394,0,0,1,13.4-13.4H563.143a13.393,13.393,0,0,1,13.391,13.4v8.588a13.39,13.39,0,0,1-13.391,13.4H529.678a11.847,11.847,0,0,0-11.846,11.846V427.463a13.4,13.4,0,0,1-13.4,13.4Z" transform="translate(211.159 -231.817)" fill="#1991c5"/>
      <path id="패스_3" data-name="패스 3" d="M472.174,440.859a13.14,13.14,0,0,1-13.143-13.143V247.473a13.521,13.521,0,0,1,13.518-13.518H576.1a13.4,13.4,0,0,1,13.4,13.4v8.588a13.394,13.394,0,0,1-13.4,13.4H507.812a13.4,13.4,0,0,0-13.4,13.4v29a7.827,7.827,0,0,0,7.828,7.828h48.178a13.4,13.4,0,0,1,13.4,13.4v8.9a13.4,13.4,0,0,1-13.4,13.4H502.239a7.821,7.821,0,0,0-7.823,7.823v29.006a13.4,13.4,0,0,0,13.4,13.4H576.1a13.393,13.393,0,0,1,13.4,13.391v8.593a13.4,13.4,0,0,1-13.4,13.4Z" transform="translate(357.121 -231.817)" fill="#1991c5"/>
      <path id="패스_4" data-name="패스 4" d="M618.689,440.859a7.833,7.833,0,0,1-6.379-3.288L560.1,364.2a11.869,11.869,0,0,0-9.652-4.975H538.875a13.4,13.4,0,0,0-13.4,13.4v60.409a7.848,7.848,0,0,1-7.823,7.828h-19.42a7.849,7.849,0,0,1-7.828-7.828V241.783a7.849,7.849,0,0,1,7.828-7.828h75.138a59.6,59.6,0,0,1,23.955,4.9,64.308,64.308,0,0,1,19.846,13.472,66.41,66.41,0,0,1,13.644,19.886,58.76,58.76,0,0,1,5.036,24.223,61.978,61.978,0,0,1-9.824,34.3,60.56,60.56,0,0,1-18.24,18.356,12.023,12.023,0,0,0-5.452,7.889,11.688,11.688,0,0,0,2.027,9.084l48.158,67.32a4.732,4.732,0,0,1-3.851,7.478ZM538.875,269.335a13.4,13.4,0,0,0-13.4,13.4v28.023a13.4,13.4,0,0,0,13.4,13.4h26.549c11.694,0,20.535-2.741,26.285-8.152,5.817-5.467,8.765-12.048,8.765-19.562a25.133,25.133,0,0,0-8.826-19.309c-5.745-5.173-14.572-7.792-26.225-7.792Z" transform="translate(484.718 -231.817)" fill="#1991c5"/>
      <path id="패스_5" data-name="패스 5" d="M406.087,306.022l-65-64.65c-15.955-15.869-43.142-4.565-43.142,17.941v168.54a13.018,13.018,0,0,0,13.016,13.016h9.348a13.018,13.018,0,0,0,13.016-13.016v-119.2a10.754,10.754,0,0,1,6.435-9.844h0a10.748,10.748,0,0,1,11.891,2.229l46.967,46.729a21.351,21.351,0,0,0,30.09.025l47.216-46.815a10.735,10.735,0,0,1,11.866-2.214h0a10.744,10.744,0,0,1,6.445,9.844l0,118.867a13.4,13.4,0,0,0,13.4,13.4h8.289a13.4,13.4,0,0,0,13.4-13.4V259.3c0-22.506-27.182-33.809-43.142-17.941l-65.045,64.675A10.676,10.676,0,0,1,406.087,306.022Z" transform="translate(-297.946 -231.827)" fill="#1991c5"/>
      <path id="패스_6" data-name="패스 6" d="M549.576,425.889l-79.53-178.521c-8-17.956-33.511-17.89-41.419.106L350.206,425.94a10.673,10.673,0,0,0,9.774,14.967h13.437a13.353,13.353,0,0,0,12.241-7.95c5.639-12.753,16.223-36.7,17.713-40.1a11.807,11.807,0,0,1,10.843-7.073h70.816a11.857,11.857,0,0,1,10.827,7.028l17.91,40.163A13.39,13.39,0,0,0,526,440.906h13.832A10.672,10.672,0,0,0,549.576,425.889ZM471.54,346.9a7.662,7.662,0,0,1-6.455,3.506H433.809a7.7,7.7,0,0,1-7.042-10.827l12.58-28.3a11.206,11.206,0,0,1,6.424-6.156,10.929,10.929,0,0,1,13.639,5.852l12.712,28.606A7.659,7.659,0,0,1,471.54,346.9Z" transform="translate(-89.145 -231.884)" fill="#1991c5"/>
    </g>
    <g id="그룹_2" data-name="그룹 2" transform="translate(-53.054 336.737)">
      <path id="패스_7" data-name="패스 7" d="M382.644,352.461a84.7,84.7,0,1,1,84.693-84.7A84.793,84.793,0,0,1,382.644,352.461Zm0-134.082a49.384,49.384,0,1,0,49.384,49.384A49.437,49.437,0,0,0,382.644,218.379Z" transform="translate(-297.946 -183.07)" fill="#1991c5"/>
      <path id="패스_8" data-name="패스 8" d="M455.277,352.461a84.953,84.953,0,0,1-69-35.623c-16.173-22.673-20.044-51.375-10.615-78.75a80.962,80.962,0,0,1,48.6-49.465,91.367,91.367,0,0,1,31.013-5.553,83.163,83.163,0,0,1,58.443,23.094,12.712,12.712,0,0,1,3.982,9.647,13.107,13.107,0,0,1-4.565,9.591l-7.083,6.075a12.858,12.858,0,0,1-8.37,3.1,13.461,13.461,0,0,1-9.064-3.542,48.642,48.642,0,0,0-33.343-12.651,50.247,50.247,0,0,0-5.776.334,49.546,49.546,0,0,0-43.289,43.39,48.954,48.954,0,0,0,12.256,38.552,49.461,49.461,0,0,0,36.809,16.492,48.586,48.586,0,0,0,33.353-12.59,13.542,13.542,0,0,1,9.1-3.562,12.877,12.877,0,0,1,8.365,3.091l6.7,5.751a13.088,13.088,0,0,1,4.56,9.687,12.729,12.729,0,0,1-4.15,9.718C501.717,339.83,482.332,352.461,455.277,352.461Z" transform="translate(-2.465 -183.07)" fill="#1991c5"/>
      <path id="패스_9" data-name="패스 9" d="M488.54,352.461a84.7,84.7,0,1,1,84.7-84.7A84.792,84.792,0,0,1,488.54,352.461Zm0-134.082a49.384,49.384,0,1,0,49.384,49.384A49.44,49.44,0,0,0,488.54,218.379Z" transform="translate(132.71 -183.07)" fill="#1991c5"/>
      <path id="패스_10" data-name="패스 10" d="M468.71,205.935a77.745,77.745,0,0,1,22.871,55.124v73.552a13.394,13.394,0,0,1-13.4,13.4h-8.522a13.4,13.4,0,0,1-13.4-13.4V262.124c0-23.251-18.407-42.863-41.029-43.715-1.135-.041-2.209-.041-3.283.005-23.063.922-41.044,20.423-41.044,43.507v72.69a13.4,13.4,0,0,1-13.4,13.4h-8.522a13.4,13.4,0,0,1-13.4-13.4v-72.1c0-42.8,34.149-78.431,76.115-79.419.618-.015,1.252-.02,1.88-.02a77.741,77.741,0,0,1,55.119,22.865" transform="translate(-144.839 -183.07)" fill="#1991c5"/>
    </g>
  </g>
</svg>
