<svg xmlns="http://www.w3.org/2000/svg" width="20.85" height="34.464" viewBox="0 0 20.85 34.464">
  <g id="ico_sec3_step2" transform="translate(-1004 -684)">
    <path id="패스_4414" data-name="패스 4414" d="M1023.85,717.464c0-10.608-5.456-13.7-9.425-16.232S1005,695.608,1005,685" transform="translate(0 0)" fill="none" stroke="#d4dee2" stroke-linecap="round" stroke-linejoin="round" stroke-miterlimit="10" stroke-width="2"/>
    <path id="패스_4415" data-name="패스 4415" d="M1005,717.464c0-10.608,5.456-13.7,9.425-16.232s9.425-5.624,9.425-16.232" transform="translate(0 0)" fill="none" stroke="#d4dee2" stroke-linecap="round" stroke-linejoin="round" stroke-miterlimit="10" stroke-width="2"/>
    <line id="선_214" data-name="선 214" x2="18.194" transform="translate(1005.407 687.761)" fill="none" stroke="#2bbfff" stroke-linecap="round" stroke-linejoin="round" stroke-miterlimit="10" stroke-width="2"/>
    <path id="패스_4423" data-name="패스 4423" d="M0,0H16.89" transform="translate(1006.063 690.718)" fill="none" stroke="#ff9e45" stroke-linecap="round" stroke-width="2"/>
    <line id="선_216" data-name="선 216" x2="13.625" transform="translate(1007.367 693.64)" fill="none" stroke="#ffb74a" stroke-linecap="round" stroke-linejoin="round" stroke-miterlimit="10" stroke-width="2"/>
    <line id="선_217" data-name="선 217" x2="10.738" transform="translate(1009.117 696.912)" fill="none" stroke="#d4dee2" stroke-linecap="round" stroke-linejoin="round" stroke-miterlimit="10" stroke-width="2"/>
    <line id="선_218" data-name="선 218" x2="8.424" transform="translate(1010.283 704.808)" fill="none" stroke="#d4dee2" stroke-linecap="round" stroke-linejoin="round" stroke-miterlimit="10" stroke-width="2"/>
    <path id="패스_4422" data-name="패스 4422" d="M0,0H12.969" transform="translate(1008.023 708.081)" fill="none" stroke="#ffb74a" stroke-linecap="round" stroke-width="2"/>
    <path id="패스_4421" data-name="패스 4421" d="M0,0H16.234" transform="translate(1006.063 710.819)" fill="none" stroke="#ff9e45" stroke-linecap="round" stroke-width="2"/>
    <line id="선_221" data-name="선 221" x2="18.194" transform="translate(1005.407 713.723)" fill="none" stroke="#2bbfff" stroke-linecap="round" stroke-linejoin="round" stroke-miterlimit="10" stroke-width="2"/>
  </g>
</svg>
