<svg xmlns="http://www.w3.org/2000/svg" width="20.825" height="20.825" viewBox="0 0 20.825 20.825">
  <path id="ico_search" d="M19.8-11.987a8.59,8.59,0,0,0-.7-3.442,8.837,8.837,0,0,0-1.9-2.808,9.088,9.088,0,0,0-2.82-1.892,8.59,8.59,0,0,0-3.442-.7,8.59,8.59,0,0,0-3.442.7,9.088,9.088,0,0,0-2.82,1.892,8.837,8.837,0,0,0-1.9,2.808,8.59,8.59,0,0,0-.7,3.442,8.677,8.677,0,0,0,.7,3.455,8.8,8.8,0,0,0,1.9,2.82A9.088,9.088,0,0,0,7.5-3.821a8.59,8.59,0,0,0,3.442.7,8.59,8.59,0,0,0,3.442-.7A9.088,9.088,0,0,0,17.2-5.713a8.8,8.8,0,0,0,1.9-2.82A8.677,8.677,0,0,0,19.8-11.987ZM10.938-5.2a6.5,6.5,0,0,1-2.625-.537A7.058,7.058,0,0,1,6.152-7.19,6.639,6.639,0,0,1,4.7-9.338a6.691,6.691,0,0,1-.525-2.649A6.63,6.63,0,0,1,4.7-14.612,6.639,6.639,0,0,1,6.152-16.76a7.058,7.058,0,0,1,2.161-1.453,6.5,6.5,0,0,1,2.625-.537,6.5,6.5,0,0,1,2.625.537,7.058,7.058,0,0,1,2.161,1.453,6.639,6.639,0,0,1,1.453,2.148,6.63,6.63,0,0,1,.525,2.625,6.691,6.691,0,0,1-.525,2.649A6.639,6.639,0,0,1,15.723-7.19a7.058,7.058,0,0,1-2.161,1.453A6.5,6.5,0,0,1,10.938-5.2Zm6.226.952,1.514-1.489L22.9-1.514,21.411,0Z" transform="translate(-2.075 20.825)" fill="#222"/>
</svg>
